<?xml version="1.0" standalone="no"?>
<!DOCTYPE svg PUBLIC "-//W3C//DTD SVG 20010904//EN"
 "http://www.w3.org/TR/2001/REC-SVG-20010904/DTD/svg10.dtd">
<svg version="1.0" xmlns="http://www.w3.org/2000/svg"
 width="1329.000000pt" height="476.000000pt" viewBox="0 0 1329.000000 476.000000"
 preserveAspectRatio="xMidYMid meet">

<g transform="translate(0.000000,476.000000) scale(0.100000,-0.100000)"
fill="#000000" stroke="none">
<path d="M7179 4686 c-96 -28 -162 -70 -237 -150 -86 -93 -116 -170 -117 -301
0 -95 2 -104 37 -178 124 -260 431 -360 691 -225 229 119 315 376 202 604 -60
123 -174 212 -325 253 -94 26 -155 26 -251 -3z"/>
<path d="M140 4591 c0 -55 25 -71 130 -82 229 -25 327 -56 392 -123 55 -57 67
-91 78 -228 5 -67 12 -909 16 -1869 l7 -1746 -41 -60 c-102 -150 -219 -207
-450 -220 -121 -7 -136 -13 -130 -60 l3 -28 1910 0 1910 0 32 205 c31 204 137
963 149 1071 7 63 -6 99 -35 99 -34 0 -59 -42 -134 -227 -139 -340 -313 -566
-562 -730 -149 -99 -314 -168 -493 -205 -102 -22 -126 -23 -512 -22 l-405 2
-53 58 c-29 32 -66 86 -83 119 l-30 61 -10 305 c-14 400 -7 1321 11 1368 l13
34 101 -6 c125 -7 317 -54 389 -96 63 -36 159 -134 210 -213 105 -166 168
-340 202 -563 21 -135 32 -155 85 -155 l40 0 0 1138 0 1138 -36 -4 c-22 -3
-40 -12 -50 -26 -7 -13 -30 -99 -48 -194 -54 -267 -113 -415 -222 -559 -84
-109 -166 -171 -294 -218 -68 -25 -91 -28 -236 -33 l-161 -4 -8 906 c-4 499
-5 910 -1 913 12 12 996 -16 1076 -31 146 -26 329 -114 444 -212 171 -146 274
-330 361 -644 32 -117 43 -130 107 -130 l48 0 0 650 0 650 -1860 0 -1860 0 0
-29z"/>
<path d="M4615 4603 c13 -62 17 -73 35 -83 11 -6 43 -15 72 -20 70 -14 153
-56 182 -94 47 -63 58 -96 67 -215 13 -166 23 -3131 11 -3436 -9 -242 -10
-252 -36 -307 -37 -78 -90 -121 -190 -154 -125 -41 -138 -49 -134 -87 l3 -32
790 0 c435 0 802 3 816 7 28 8 42 29 33 52 -6 16 -52 37 -149 68 -88 28 -142
79 -175 164 -21 55 -24 81 -31 344 -4 157 -10 1078 -14 2048 l-8 1762 -638 0
c-601 0 -637 -1 -634 -17z"/>
<path d="M9550 4264 c-17 -15 -56 -70 -87 -123 -185 -314 -563 -746 -868 -990
-197 -158 -255 -218 -255 -265 0 -21 56 -34 180 -41 58 -3 133 -8 168 -11 l62
-6 0 -286 c0 -448 19 -1639 30 -1822 9 -162 9 -165 46 -237 67 -133 202 -257
356 -327 134 -62 177 -70 348 -71 183 0 258 17 402 91 170 88 278 193 366 354
94 174 48 215 -92 81 -110 -106 -236 -181 -301 -181 -44 0 -125 42 -169 88
-73 76 -69 17 -74 1240 l-3 1092 318 0 c344 0 388 5 403 46 13 33 13 210 0
234 -20 38 -63 43 -397 48 l-323 4 0 554 0 554 -39 0 c-28 0 -49 -8 -71 -26z"/>
<path d="M11828 3225 c-289 -55 -614 -282 -811 -568 -115 -166 -176 -296 -238
-504 l-32 -108 -5 -324 c-6 -472 13 -625 108 -848 162 -378 387 -603 722 -721
47 -17 119 -38 160 -46 554 -115 1022 95 1362 612 68 104 156 261 156 280 0
17 -60 82 -75 82 -8 0 -49 -46 -93 -102 -151 -196 -247 -277 -395 -335 -69
-27 -80 -28 -237 -28 -156 0 -168 1 -228 26 -103 44 -171 90 -253 172 -217
217 -348 522 -374 868 l-7 87 838 7 837 7 -7 102 c-15 229 -63 443 -146 647
-62 154 -121 240 -265 385 -156 156 -298 249 -455 297 -88 26 -445 34 -562 12z
m334 -192 c119 -37 232 -220 274 -443 9 -46 17 -179 21 -341 l6 -266 -219 -6
c-120 -4 -322 -7 -448 -7 l-228 0 6 83 c3 45 8 132 11 192 15 279 72 500 163
625 122 167 246 217 414 163z"/>
<path d="M6720 3171 c-113 -3 -211 -10 -217 -14 -7 -5 -13 -23 -13 -41 0 -42
12 -52 73 -59 26 -4 70 -16 97 -28 61 -26 144 -112 160 -165 25 -87 31 -256
37 -1075 7 -1037 -4 -1266 -63 -1381 -22 -42 -84 -82 -180 -117 -121 -44 -124
-46 -124 -86 l0 -35 778 1 c427 0 795 3 816 7 45 8 66 33 50 60 -6 9 -51 31
-100 47 -147 51 -185 79 -225 170 -32 70 -36 208 -45 1583 l-7 1142 -416 -2
c-229 -1 -508 -4 -621 -7z"/>
</g>
</svg>
